{"accessors":[{"bufferView":0,"byteOffset":0,"componentType":5126,"count":156,"max":[0.5,0.5,0.5],"min":[-0.5,-1.10000002384186,-0.5],"normalized":false,"type":"VEC3"},{"bufferView":1,"byteOffset":0,"componentType":5126,"count":156,"max":[0.0,0.0,0.0000763009302318096,1.0],"min":[-1.0,-1.0,-1.0,-1.0],"normalized":false,"type":"VEC4"},{"bufferView":2,"byteOffset":0,"componentType":5126,"count":156,"max":[1.0,1.0,1.0],"min":[-1.0,-1.0,-1.0],"normalized":false,"type":"VEC3"},{"bufferView":3,"byteOffset":0,"componentType":5126,"count":156,"max":[1.0,1.0],"min":[0.0,0.0],"normalized":false,"type":"VEC2"},{"bufferView":4,"byteOffset":0,"componentType":5123,"count":156,"max":[155.0],"min":[0.0],"normalized":false,"type":"SCALAR"}],"asset":{"generator":"Godot Engine v4.4.stable.official@4c311cbee68c0b66ff8ebb8b0defdd9979dd2a41","version":"2.0"},"bufferViews":[{"buffer":0,"byteLength":1872,"byteOffset":0,"byteStride":12,"target":34962},{"buffer":0,"byteLength":2496,"byteOffset":1872,"byteStride":16,"target":34962},{"buffer":0,"byteLength":1872,"byteOffset":4368,"byteStride":12,"target":34962},{"buffer":0,"byteLength":1248,"byteOffset":6240,"byteStride":8,"target":34962},{"buffer":0,"byteLength":312,"byteOffset":7488,"target":34963}],"buffers":[{"byteLength":7800,"uri":"Player0.bin"}],"extensionsUsed":["GODOT_single_root"],"materials":[{}],"meshes":[{"extras":{"targetNames":[]},"primitives":[{"attributes":{"NORMAL":2,"POSITION":0,"TANGENT":1,"TEXCOORD_0":3},"indices":4,"material":0,"mode":4}]}],"nodes":[{"children":[1],"name":"Player"},{"mesh":0,"name":"Mesh","translation":[0.0,1.20000004768372,0.0]}],"scene":0,"scenes":[{"nodes":[0]}]}